<svg id="Layer_1" data-name="Layer 1" xmlns="http://www.w3.org/2000/svg" xmlns:xlink="http://www.w3.org/1999/xlink" viewBox="0 0 95.30488 128.25">
<clipPath id="clip-path">
    <path class="cls-1" d="M47.5,0C22.57438,0,0,20.20531,0,45.13688,0,70.0625,20.59719,85.57125,47.5,128.25,74.40281,85.57125,95,70.0625,95,45.13687,95,20.20531,72.43156,0,47.5,0Z"/>
</clipPath>
</defs>
<title>Open Map</title><path class="cls-2" d="M47.5,0C22.57438,0,0,20.20531,0,45.13688,0,70.0625,20.59719,85.57125,47.5,128.25,74.40281,85.57125,95,70.0625,95,45.13687,95,20.20531,72.43156,0,47.5,0Z"/><g class="cls-3"><path class="cls-4" d="M27.36448,32.965a7.94754,7.94754,0,0,1,3.88623.97136,7.66514,7.66514,0,0,1,2.82834,2.634,6.66578,6.66578,0,0,1,1.05792,3.6488,6.61415,6.61415,0,0,1-1.55442,4.66348,7.26959,7.26959,0,0,1-3.67025,2.20218v.25908a8.48922,8.48922,0,0,1,2.46126.84194,6.367,6.367,0,0,1,2.39635,2.2671,8.32447,8.32447,0,0,1-.04289,8.20429,8.038,8.038,0,0,1-2.9794,2.87139,8.25722,8.25722,0,0,1-4.12388,1.05794H15.53341V32.965ZM31.078,44.79622a5.73282,5.73282,0,0,0,0-8.11773,5.71076,5.71076,0,0,0-4.14511-1.641h-9.068V46.437h9.068A5.7081,5.7081,0,0,0,31.078,44.79622Zm-.62594,14.94051a5.89385,5.89385,0,0,0,3.04432-5.18181,5.99212,5.99212,0,0,0-3.06594-5.24631,6.17287,6.17287,0,0,0-3.066-.79884H17.86485v12.004h9.49963A6.26675,6.26675,0,0,0,30.45206,59.73673Z"/><path class="cls-4" d="M63.98091,53.08688A10.41305,10.41305,0,0,1,62.707,58.31174a8.71359,8.71359,0,0,1-3.62737,3.4759,11.52439,11.52439,0,0,1-5.419,1.23065,11.39291,11.39291,0,0,1-5.39737-1.23065,8.74292,8.74292,0,0,1-3.60576-3.4759,10.40481,10.40481,0,0,1-1.2735-5.22486V32.965h2.33142V53.00051A7.9379,7.9379,0,0,0,47.81,58.80824a7.81566,7.81566,0,0,0,5.85061,2.13749A7.80169,7.80169,0,0,0,59.53325,58.765a7.92675,7.92675,0,0,0,2.11584-5.76446V32.965h2.33182Z"/><path class="cls-4" d="M72.14172,49.04344V46.58218H95.30488v2.46126Z"/></g>
</svg>