<svg id="Layer_1" data-name="Layer 1" xmlns="http://www.w3.org/2000/svg" viewBox="0 0 30.37519 30.64789"><defs><style>.cls-1{fill:#58595b;}</style></defs><title>close</title><path class="cls-1" d="M30.182.467a.65961.65961,0,0,0-.9329-.001L13.14475,16.57034l-2.0616,2.0616L0,29.715l.93285.93285L12.016,19.56475l2.0616-2.0616L30.182,1.39875A.65832.65832,0,0,0,30.182.467Z"/><path class="cls-1" d="M30.1809,30.182a.65961.65961,0,0,0,.001-.9329L14.07755,13.14475l-2.0616-2.0616L.93285,0,0,.9328,11.08315,12.016l2.0616,2.0616L29.24914,30.182A.65832.65832,0,0,0,30.1809,30.182Z"/></svg>